<?xml version="1.0" encoding="UTF-8"?>
<svg version="1.1" xmlns="http://www.w3.org/2000/svg" width="767" height="531">
<path d="M0 0 C253.11 0 506.22 0 767 0 C767 175.23 767 350.46 767 531 C513.89 531 260.78 531 0 531 C0 355.77 0 180.54 0 0 Z " fill="#162543" transform="translate(0,0)"/>
<path d="M0 0 C1.56067503 -0.00736089 3.12134466 -0.0159529 4.68200684 -0.02566528 C8.87851561 -0.04767724 13.07482688 -0.0508223 17.27138543 -0.04891777 C20.79469826 -0.04879713 24.31797064 -0.05739918 27.84127206 -0.06569529 C36.16422899 -0.08485613 44.48708566 -0.08783996 52.81005859 -0.08105469 C61.35119361 -0.07441884 69.89189625 -0.09727677 78.43294364 -0.13436842 C85.80755326 -0.16521377 93.18202484 -0.1764095 100.55669755 -0.1725316 C104.94295871 -0.17047943 109.32888306 -0.17570318 113.71508217 -0.20042419 C117.84487415 -0.22293629 121.97397021 -0.22061431 126.1037674 -0.20049667 C127.60438533 -0.19712937 129.10505245 -0.20198666 130.60560417 -0.21648026 C154.43468152 -0.43045023 179.12991953 9.39455258 196.41503906 25.85571289 C212.53714404 41.73863968 222.46251101 61.91623889 224.90112305 84.41992188 C224.90112305 88.37992187 224.90112305 92.33992188 224.90112305 96.41992188 C206.75112305 96.41992188 188.60112305 96.41992188 169.90112305 96.41992188 C169.24112305 91.13992187 168.58112305 85.85992187 167.90112305 80.41992188 C163.85742756 69.9538865 157.69384305 63.30964809 147.58862305 58.42773438 C139.09882924 55.2440617 131.20440998 55.12211542 122.21435547 55.12939453 C120.73350183 55.12340214 119.2526513 55.11659497 117.77180481 55.10903931 C113.76751856 55.0914447 109.7633179 55.08668671 105.75899673 55.08540773 C103.25224348 55.0839819 100.7455117 55.07970415 98.23876381 55.0744133 C89.47931166 55.0559349 80.71992021 55.04773997 71.96044922 55.04931641 C63.81814469 55.05051732 55.67610544 55.02941921 47.53386801 54.99782908 C40.52381376 54.97160873 33.51384586 54.96095151 26.50374299 54.96222723 C22.32553754 54.96273515 18.14756809 54.95714618 13.96941185 54.93587112 C10.03678726 54.91639111 6.10462145 54.91643017 2.1719799 54.93090439 C0.73657301 54.93298153 -0.69886335 54.92835752 -2.13422012 54.91618347 C-15.24148435 54.81229751 -25.44324729 57.1980412 -35.09887695 66.41992188 C-42.65223851 74.52966944 -45.76401721 83.35369847 -45.63745117 94.37915039 C-45.18647949 103.97759547 -41.46391746 112.44000884 -34.65025902 119.23929882 C-23.90235863 128.42534731 -13.27687379 129.42811624 0.24731445 129.24291992 C2.04942299 129.24426274 3.85153146 129.24874858 5.65362549 129.25610352 C9.50825366 129.26529116 13.3619586 129.25281589 17.21648026 129.22296715 C23.33096209 129.17598439 29.44480225 129.17983828 35.55941772 129.19013977 C46.3461832 129.20192245 57.13251003 129.17115635 67.91918945 129.13098145 C84.12895481 129.07108006 100.33873989 129.04681915 116.54860818 129.05922729 C122.60637595 129.06230734 128.66357555 129.04418802 134.72123265 129.00823438 C138.51564714 128.98946788 142.30995331 128.98737332 146.10440826 128.98914337 C147.84083165 128.98652269 149.5772627 128.97717567 151.31360245 128.95993233 C178.64489522 128.69905028 206.47769685 135.64235275 226.59179688 155.05371094 C228.04220567 156.49519625 229.47244757 157.95689353 230.90112305 159.41992188 C231.91239258 160.41765625 231.91239258 160.41765625 232.9440918 161.43554688 C249.69814931 179.07139688 255.83792253 203.0872011 255.2487793 226.78320312 C254.44429715 243.95990608 247.76696111 260.18154302 236.90112305 273.41992188 C236.18827148 274.29648437 235.47541992 275.17304688 234.7409668 276.07617188 C229.74862915 281.92257787 224.39696824 286.32442031 217.90112305 290.41992188 C219.02647461 291.12955078 219.02647461 291.12955078 220.17456055 291.85351562 C241.15992525 305.4120699 255.4035546 322.82602178 261.21362305 347.35742188 C265.85563929 373.16215277 262.34836639 399.27735831 248.27612305 421.73242188 C231.55521971 444.77662979 208.309126 459.81545097 180.01106262 464.51119995 C172.28280669 465.64873177 164.61862526 465.68674436 156.82958984 465.64697266 C155.23605007 465.64635847 153.64250975 465.64662955 152.04897022 465.64770317 C147.82101328 465.64815061 143.59317191 465.6366458 139.365242 465.6224823 C135.38293637 465.61100532 131.40065739 465.61055136 127.41833496 465.60913086 C115.80841597 465.59867898 104.198518 465.57075644 92.58862305 465.54492188 C53.63831055 465.48304688 53.63831055 465.48304688 13.90112305 465.41992188 C13.90112305 378.62992187 13.90112305 291.83992187 13.90112305 202.41992188 C32.05112305 202.41992188 50.20112305 202.41992188 68.90112305 202.41992188 C68.90112305 271.71992188 68.90112305 341.01992188 68.90112305 412.41992188 C131.94482131 419.68255355 131.94482131 419.68255355 194.65112305 398.16992188 C204.77354034 387.55430095 205.54148132 373.99434778 205.27612305 360.12304688 C204.73416517 348.30062289 199.66282597 338.81573178 191.09643555 330.71289062 C182.10100727 323.34111849 171.41786114 320.30469089 159.98974609 320.21459961 C159.20873032 320.20470001 158.42771454 320.19480042 157.62303162 320.18460083 C155.05299871 320.15312621 152.48294735 320.12828417 149.9128418 320.10351562 C148.12636344 320.08293396 146.33988983 320.06193717 144.55342102 320.0405426 C139.85993292 319.98544712 135.16640178 319.93598279 130.47283936 319.88769531 C124.83679261 319.82853799 119.20082422 319.76237914 113.56484222 319.69739532 C105.01031717 319.59954345 96.45574099 319.51057961 87.90112305 319.41992188 C87.90112305 302.25992187 87.90112305 285.09992188 87.90112305 267.41992188 C93.18756836 267.38253906 98.47401367 267.34515625 103.9206543 267.30664062 C107.28852418 267.27633109 110.65634311 267.2451638 114.02416992 267.2109375 C119.35869643 267.15680489 124.69312217 267.10568829 130.02783203 267.07348633 C134.33334763 267.04729693 138.6385209 267.00678662 142.94382286 266.95673561 C144.57863768 266.94017185 146.21351156 266.92859275 147.84839821 266.92230797 C163.22202928 266.85728277 177.79050496 264.92460605 189.21362305 253.54492188 C196.53086014 244.56810524 199.8654106 233.143173 199.29174805 221.66992188 C197.86181277 209.77286035 193.50495516 198.98000064 183.90112305 191.41992188 C171.55756305 183.19088188 159.39399574 183.12781778 145.03735352 183.16455078 C143.23920025 183.16179683 141.44104821 183.15811449 139.64289856 183.15357971 C135.78578927 183.1454999 131.92873785 183.14329117 128.07162094 183.14552689 C121.95867995 183.14837464 115.84585317 183.1339525 109.73294067 183.11654663 C92.35509962 183.06966234 74.97726678 183.04559378 57.59936523 183.0390625 C47.98982575 183.03529856 38.38041615 183.01716316 28.77093232 182.98396814 C22.70882959 182.96387755 16.64706469 182.961323 10.58494258 182.97224832 C6.79394067 182.97487657 3.00313084 182.96074913 -0.78782082 182.94216728 C-2.52911359 182.93689614 -4.2704429 182.93825365 -6.01172066 182.94720268 C-31.08290154 183.06553145 -54.17549361 175.18537554 -73.09887695 158.41992188 C-73.77176758 157.84113281 -74.4446582 157.26234375 -75.13793945 156.66601562 C-91.37160196 141.69353407 -100.19284719 119.00464621 -101.48168945 97.24023438 C-102.33085211 72.32075297 -94.31689658 49.01820702 -77.43481445 30.41992188 C-64.26087187 16.76355323 -48.4806791 7.84052382 -30.09887695 3.41992188 C-29.0514523 3.1538488 -28.00402765 2.88777573 -26.92486286 2.61363983 C-17.89828062 0.46910761 -9.22395879 -0.02089123 0 0 Z " fill="#05ACD2" transform="translate(233.098876953125,38.580078125)"/>
<path d="M0 0 C1.56067503 -0.00736089 3.12134466 -0.0159529 4.68200684 -0.02566528 C8.87851561 -0.04767724 13.07482688 -0.0508223 17.27138543 -0.04891777 C20.79469826 -0.04879713 24.31797064 -0.05739918 27.84127206 -0.06569529 C36.16422899 -0.08485613 44.48708566 -0.08783996 52.81005859 -0.08105469 C61.35119361 -0.07441884 69.89189625 -0.09727677 78.43294364 -0.13436842 C85.80755326 -0.16521377 93.18202484 -0.1764095 100.55669755 -0.1725316 C104.94295871 -0.17047943 109.32888306 -0.17570318 113.71508217 -0.20042419 C117.84487415 -0.22293629 121.97397021 -0.22061431 126.1037674 -0.20049667 C127.60438533 -0.19712937 129.10505245 -0.20198666 130.60560417 -0.21648026 C154.43468152 -0.43045023 179.12991953 9.39455258 196.41503906 25.85571289 C212.53714404 41.73863968 222.46251101 61.91623889 224.90112305 84.41992188 C224.90112305 88.37992187 224.90112305 92.33992188 224.90112305 96.41992188 C206.75112305 96.41992188 188.60112305 96.41992188 169.90112305 96.41992188 C169.24112305 91.13992187 168.58112305 85.85992187 167.90112305 80.41992188 C163.85742756 69.9538865 157.69384305 63.30964809 147.58862305 58.42773438 C139.09882924 55.2440617 131.20440998 55.12211542 122.21435547 55.12939453 C120.73350183 55.12340214 119.2526513 55.11659497 117.77180481 55.10903931 C113.76751856 55.0914447 109.7633179 55.08668671 105.75899673 55.08540773 C103.25224348 55.0839819 100.7455117 55.07970415 98.23876381 55.0744133 C89.47931166 55.0559349 80.71992021 55.04773997 71.96044922 55.04931641 C63.81814469 55.05051732 55.67610544 55.02941921 47.53386801 54.99782908 C40.52381376 54.97160873 33.51384586 54.96095151 26.50374299 54.96222723 C22.32553754 54.96273515 18.14756809 54.95714618 13.96941185 54.93587112 C10.03678726 54.91639111 6.10462145 54.91643017 2.1719799 54.93090439 C0.73657301 54.93298153 -0.69886335 54.92835752 -2.13422012 54.91618347 C-15.24148435 54.81229751 -25.44324729 57.1980412 -35.09887695 66.41992188 C-42.65223851 74.52966944 -45.76401721 83.35369847 -45.63745117 94.37915039 C-45.18647949 103.97759547 -41.46391746 112.44000884 -34.65025902 119.23929882 C-23.90235863 128.42534731 -13.27687379 129.42811624 0.24731445 129.24291992 C2.04942299 129.24426274 3.85153146 129.24874858 5.65362549 129.25610352 C9.50825366 129.26529116 13.3619586 129.25281589 17.21648026 129.22296715 C23.33096209 129.17598439 29.44480225 129.17983828 35.55941772 129.19013977 C46.3461832 129.20192245 57.13251003 129.17115635 67.91918945 129.13098145 C84.12895481 129.07108006 100.33873989 129.04681915 116.54860818 129.05922729 C122.60637595 129.06230734 128.66357555 129.04418802 134.72123265 129.00823438 C138.51564714 128.98946788 142.30995331 128.98737332 146.10440826 128.98914337 C147.84083165 128.98652269 149.5772627 128.97717567 151.31360245 128.95993233 C178.64489522 128.69905028 206.47769685 135.64235275 226.59179688 155.05371094 C228.04220567 156.49519625 229.47244757 157.95689353 230.90112305 159.41992188 C231.91239258 160.41765625 231.91239258 160.41765625 232.9440918 161.43554688 C249.69814931 179.07139688 255.83792253 203.0872011 255.2487793 226.78320312 C254.44429715 243.95990608 247.76696111 260.18154302 236.90112305 273.41992188 C236.18827148 274.29648437 235.47541992 275.17304688 234.7409668 276.07617188 C229.74862915 281.92257787 224.39696824 286.32442031 217.90112305 290.41992188 C219.02647461 291.12955078 219.02647461 291.12955078 220.17456055 291.85351562 C241.15992525 305.4120699 255.4035546 322.82602178 261.21362305 347.35742188 C265.85563929 373.16215277 262.34836639 399.27735831 248.27612305 421.73242188 C231.55521971 444.77662979 208.309126 459.81545097 180.01106262 464.51119995 C172.28280669 465.64873177 164.61862526 465.68674436 156.82958984 465.64697266 C155.23605007 465.64635847 153.64250975 465.64662955 152.04897022 465.64770317 C147.82101328 465.64815061 143.59317191 465.6366458 139.365242 465.6224823 C135.38293637 465.61100532 131.40065739 465.61055136 127.41833496 465.60913086 C115.80841597 465.59867898 104.198518 465.57075644 92.58862305 465.54492188 C53.63831055 465.48304688 53.63831055 465.48304688 13.90112305 465.41992188 C13.90112305 378.62992187 13.90112305 291.83992187 13.90112305 202.41992188 C32.05112305 202.41992188 50.20112305 202.41992188 68.90112305 202.41992188 C68.90112305 271.71992188 68.90112305 341.01992188 68.90112305 412.41992188 C131.94482131 419.68255355 131.94482131 419.68255355 194.65112305 398.16992188 C204.77354034 387.55430095 205.54148132 373.99434778 205.27612305 360.12304688 C204.73416517 348.30062289 199.66282597 338.81573178 191.09643555 330.71289062 C182.10100727 323.34111849 171.41786114 320.30469089 159.98974609 320.21459961 C159.20873032 320.20470001 158.42771454 320.19480042 157.62303162 320.18460083 C155.05299871 320.15312621 152.48294735 320.12828417 149.9128418 320.10351562 C148.12636344 320.08293396 146.33988983 320.06193717 144.55342102 320.0405426 C139.85993292 319.98544712 135.16640178 319.93598279 130.47283936 319.88769531 C124.83679261 319.82853799 119.20082422 319.76237914 113.56484222 319.69739532 C105.01031717 319.59954345 96.45574099 319.51057961 87.90112305 319.41992188 C87.90112305 302.25992187 87.90112305 285.09992188 87.90112305 267.41992188 C93.18756836 267.38253906 98.47401367 267.34515625 103.9206543 267.30664062 C107.28852418 267.27633109 110.65634311 267.2451638 114.02416992 267.2109375 C119.35869643 267.15680489 124.69312217 267.10568829 130.02783203 267.07348633 C134.33334763 267.04729693 138.6385209 267.00678662 142.94382286 266.95673561 C144.57863768 266.94017185 146.21351156 266.92859275 147.84839821 266.92230797 C163.22202928 266.85728277 177.79050496 264.92460605 189.21362305 253.54492188 C196.53086014 244.56810524 199.8654106 233.143173 199.29174805 221.66992188 C197.86181277 209.77286035 193.50495516 198.98000064 183.90112305 191.41992188 C171.55756305 183.19088188 159.39399574 183.12781778 145.03735352 183.16455078 C143.23920025 183.16179683 141.44104821 183.15811449 139.64289856 183.15357971 C135.78578927 183.1454999 131.92873785 183.14329117 128.07162094 183.14552689 C121.95867995 183.14837464 115.84585317 183.1339525 109.73294067 183.11654663 C92.35509962 183.06966234 74.97726678 183.04559378 57.59936523 183.0390625 C47.98982575 183.03529856 38.38041615 183.01716316 28.77093232 182.98396814 C22.70882959 182.96387755 16.64706469 182.961323 10.58494258 182.97224832 C6.79394067 182.97487657 3.00313084 182.96074913 -0.78782082 182.94216728 C-2.52911359 182.93689614 -4.2704429 182.93825365 -6.01172066 182.94720268 C-31.08290154 183.06553145 -54.17549361 175.18537554 -73.09887695 158.41992188 C-73.77176758 157.84113281 -74.4446582 157.26234375 -75.13793945 156.66601562 C-91.37160196 141.69353407 -100.19284719 119.00464621 -101.48168945 97.24023438 C-102.33085211 72.32075297 -94.31689658 49.01820702 -77.43481445 30.41992188 C-64.26087187 16.76355323 -48.4806791 7.84052382 -30.09887695 3.41992188 C-29.0514523 3.1538488 -28.00402765 2.88777573 -26.92486286 2.61363983 C-17.89828062 0.46910761 -9.22395879 -0.02089123 0 0 Z M-69.03637695 34.79492188 C-69.84163818 35.58527832 -70.64689941 36.37563477 -71.4765625 37.18994141 C-85.77446927 51.74026082 -93.39369822 72.24191019 -93.53637695 92.60742188 C-93.31081829 100.43975205 -92.03012018 107.83831636 -90.09887695 115.41992188 C-89.85524414 116.42410156 -89.61161133 117.42828125 -89.3605957 118.46289062 C-83.86082394 137.77725496 -69.32007068 153.84958269 -52.19262695 163.76367188 C-43.22987349 168.63543173 -34.12784919 171.59226584 -24.09887695 173.41992188 C-22.79027442 173.67045964 -22.79027442 173.67045964 -21.45523548 173.92605877 C-12.17741703 175.54174637 -3.09743914 175.69418667 6.27929688 175.65942383 C7.98922306 175.66053929 9.69914884 175.66260112 11.40907288 175.66552734 C15.06642113 175.67021828 18.72370498 175.66916236 22.38105202 175.6637516 C28.1791857 175.65608276 33.97719792 175.66686346 39.77531433 175.68095398 C56.25451162 175.71852607 72.73365232 175.7369013 89.21289062 175.7253418 C98.33354981 175.71910206 107.45401082 175.7308204 116.57462138 175.76178712 C122.3232039 175.78031117 128.07121926 175.77724911 133.81979144 175.7576195 C137.4141664 175.75067769 141.00824205 175.76481118 144.60256004 175.78456879 C146.25194338 175.78956313 147.90137926 175.78627061 149.55072021 175.77343559 C164.04638595 175.6687702 178.40918425 177.78767442 189.90112305 187.41992188 C190.83311523 188.17015625 190.83311523 188.17015625 191.78393555 188.93554688 C198.66358626 195.07064664 204.30801886 205.52892193 205.10400391 214.77709961 C205.20654696 217.55752501 205.23004312 220.32515717 205.21362305 223.10742188 C205.2079834 224.09331299 205.20234375 225.0792041 205.1965332 226.0949707 C205.08230581 232.92769118 204.64719762 239.08202353 201.90112305 245.41992188 C201.51053711 246.33644531 201.11995117 247.25296875 200.7175293 248.19726562 C195.60272606 258.76013124 187.89519158 265.20485158 177.0534668 269.44726562 C167.55001791 272.37955655 158.57678024 272.75852676 148.7097168 272.83398438 C147.15315253 272.85272449 145.59659812 272.87229995 144.04005432 272.89266968 C139.97136278 272.94369694 135.90263841 272.9834787 131.83380127 273.02081299 C126.93682115 273.06812854 122.04000017 273.1295987 117.14315033 273.18865967 C109.72920652 273.27651286 102.31528764 273.34653343 94.90112305 273.41992188 C94.90112305 286.28992188 94.90112305 299.15992188 94.90112305 312.41992188 C102.32805664 312.45859375 102.32805664 312.45859375 109.9050293 312.49804688 C113.07239621 312.52326172 116.23967197 312.54963003 119.40698242 312.58007812 C124.41634261 312.62812679 129.42549136 312.67227714 134.43505859 312.69091797 C138.48132338 312.70624453 142.52702876 312.74096544 146.57304192 312.7882309 C148.10406523 312.80288204 149.63516849 312.81095335 151.16626167 312.81180573 C167.91015697 312.83047339 185.2633976 315.7583387 197.83862305 327.79492188 C208.47937659 339.35761796 212.48109738 353.65068326 212.1784668 369.23242188 C211.66293388 380.16890121 208.43818006 390.57855226 201.90112305 399.41992188 C201.28237305 400.26167969 200.66362305 401.1034375 200.02612305 401.97070312 C192.92098331 410.15989911 180.47611583 415.64031744 169.90112305 417.41992188 C167.94710052 417.53087985 165.99014486 417.59533144 164.03320312 417.62524414 C162.86779495 417.64518936 161.70238678 417.66513458 160.50166321 417.6856842 C158.6053138 417.71075294 158.6053138 417.71075294 156.6706543 417.73632812 C155.32109608 417.75700872 153.9715427 417.778007 152.62199402 417.79930115 C149.76804977 417.84331948 146.91408299 417.88414336 144.06005859 417.92260742 C141.22861553 417.96087658 138.397257 418.00228988 135.56591797 418.04760742 C111.33971574 418.43452474 87.13487962 418.41992188 62.90112305 418.41992188 C62.57112305 349.44992187 62.24112305 280.47992188 61.90112305 209.41992188 C48.37112305 209.41992188 34.84112305 209.41992188 20.90112305 209.41992188 C20.31505086 268.11910416 19.79538066 326.81641434 19.77774048 385.51895523 C19.77613262 389.02406346 19.77258389 392.52916503 19.76855469 396.03427124 C19.7626832 401.56499152 19.76248194 407.09568423 19.76680374 412.62640572 C19.76778294 414.62961373 19.76725464 416.63282325 19.76496506 418.6360302 C19.75242226 431.92630581 20.15949102 445.1501533 20.90112305 458.41992188 C23.42951971 459.68412021 25.2046513 459.5645987 28.03605652 459.59159851 C29.12464966 459.60427765 30.2132428 459.61695679 31.33482361 459.63002014 C33.13530907 459.64336647 33.13530907 459.64336647 34.97216797 459.65698242 C36.86302628 459.6766507 36.86302628 459.6766507 38.79208374 459.69671631 C42.26237407 459.7324065 45.73269023 459.7616174 49.20305419 459.78910804 C51.38054611 459.80663221 53.55802202 459.8255083 55.73549843 459.84485817 C63.36106513 459.91254511 70.98665532 459.97487138 78.61230469 460.0324707 C85.66702139 460.0859007 92.72156232 460.15101151 99.77612418 460.22180909 C105.8630421 460.2823411 111.94999693 460.33419528 118.0370453 460.37973624 C121.65790375 460.406974 125.27865549 460.43742228 128.89940453 460.47675133 C167.97617382 461.59649844 167.97617382 461.59649844 204.90112305 450.41992188 C205.93881836 449.89269531 206.97651367 449.36546875 208.0456543 448.82226562 C218.16052443 443.56253316 225.66750414 438.20970939 232.90112305 429.41992188 C233.91961097 428.23040967 234.94035182 427.04282179 235.96362305 425.85742188 C236.44573242 425.28765625 236.9278418 424.71789062 237.42456055 424.13085938 C238.42693352 422.96937958 239.45423016 421.8290416 240.50268555 420.70898438 C243.77297165 417.14872217 245.74768941 414.0522689 247.1628418 409.41210938 C247.90112305 407.41992187 247.90112305 407.41992187 249.3503418 405.09570312 C251.12548168 402.03280433 252.05812804 399.13564843 253.02612305 395.73242188 C253.35870117 394.59417969 253.6912793 393.4559375 254.03393555 392.28320312 C259.14310193 369.52209703 256.85415716 344.02600515 244.77612305 323.85742188 C234.25698103 308.32701478 220.60182408 297.68273975 202.90112305 291.41992188 C203.8447168 290.89785156 204.78831055 290.37578125 205.76049805 289.83789062 C225.9451628 278.3860858 239.27483098 263.07120275 246.10424805 240.59570312 C251.04692508 220.89768141 248.36513483 198.98919149 238.6159668 181.17773438 C224.36885035 158.26551522 205.86350972 145.38073572 179.8503418 138.99804688 C173.56344715 137.76564898 167.51320439 137.29646864 161.1104126 137.31985474 C159.99804989 137.32174815 159.99804989 137.32174815 158.86321521 137.3236798 C156.40087724 137.32901818 153.93862972 137.34153683 151.47631836 137.35400391 C149.70152925 137.3592023 147.92673864 137.36390938 146.15194702 137.36816406 C142.34008673 137.37807755 138.5282515 137.39091699 134.71640778 137.4058876 C128.68039401 137.42903108 122.6443835 137.44227868 116.6083374 137.45358276 C99.44742587 137.48694891 82.28656348 137.52856474 65.12573242 137.59130859 C55.64010169 137.62590712 46.15450728 137.64966678 36.66882014 137.66151702 C30.67752801 137.66958413 24.68647477 137.69075297 18.69525957 137.72172189 C14.95587138 137.73781185 11.21655036 137.74114089 7.47713089 137.74095154 C5.7534876 137.74335829 4.02984203 137.75086662 2.30624771 137.76408005 C-9.38511466 137.84991202 -20.76162743 137.51880078 -31.09887695 131.35742188 C-31.96512695 130.85082031 -32.83137695 130.34421875 -33.72387695 129.82226562 C-34.50762695 129.35949219 -35.29137695 128.89671875 -36.09887695 128.41992188 C-37.21262695 127.89205078 -37.21262695 127.89205078 -38.34887695 127.35351562 C-40.66389114 126.11849689 -40.99545838 124.76468635 -42.09887695 122.41992188 C-43.03860352 121.52660156 -43.03860352 121.52660156 -43.99731445 120.61523438 C-52.16422568 112.08399997 -53.54116625 99.38283287 -53.34106445 88.16601562 C-52.58377815 76.45250658 -47.83334367 66.43672264 -39.09887695 58.48242188 C-27.46875769 49.16057056 -15.28922751 46.8202942 -0.62255859 46.79467773 C0.89506361 46.77771629 2.4126682 46.75911381 3.93025208 46.73901367 C8.01705282 46.69015383 12.10363913 46.66590204 16.19067836 46.6477592 C19.61740034 46.63030025 23.04397548 46.60068243 26.47061163 46.57118326 C34.56124646 46.50177107 42.65182928 46.45250452 50.74267578 46.41625977 C59.05797023 46.37868161 67.3725238 46.30826785 75.68743795 46.22144216 C82.85717004 46.14767469 90.02686496 46.09384618 97.19687563 46.05583102 C101.46573046 46.03304247 105.7342091 46.00313367 110.00285149 45.95420647 C114.01922808 45.90908879 118.03499646 45.88913412 122.05161858 45.88761139 C123.51526207 45.88304774 124.97891075 45.87005275 126.44238663 45.8474369 C136.40175481 45.70059562 143.8288502 47.42043564 152.90112305 51.41992188 C154.89408492 52.10734273 156.89236032 52.78014321 158.90112305 53.41992188 C158.90112305 54.07992187 158.90112305 54.73992187 158.90112305 55.41992188 C160.06741757 56.48853183 161.28618236 57.50022167 162.52612305 58.48242188 C171.38745896 66.07561607 175.83540635 76.04825371 177.90112305 87.41992188 C182.14409664 88.2256308 186.15500471 88.54837246 190.47143555 88.55273438 C192.3102832 88.55466797 192.3102832 88.55466797 194.1862793 88.55664062 C195.45342773 88.55277344 196.72057617 88.54890625 198.02612305 88.54492188 C199.30100586 88.54878906 200.57588867 88.55265625 201.8894043 88.55664062 C203.11272461 88.55535156 204.33604492 88.5540625 205.59643555 88.55273438 C206.71034668 88.55160645 207.82425781 88.55047852 208.97192383 88.54931641 C211.46721473 88.43908935 213.52563899 88.14722879 215.90112305 87.41992188 C216.17237463 81.63063812 215.22762191 76.68431783 213.71362305 71.10742188 C213.48513672 70.2629248 213.25665039 69.41842773 213.02124023 68.54833984 C207.17668449 47.71454862 193.17405666 31.58554644 174.90112305 20.41992188 C157.92398597 11.19802138 139.68874471 9.10729921 120.61254883 9.14526367 C119.1389236 9.14090273 117.66530062 9.13571506 116.19168091 9.129776 C112.2328581 9.11652378 108.27413155 9.11579171 104.31529093 9.1183393 C100.99071978 9.11941837 97.66616738 9.11450203 94.3416003 9.10973388 C86.48854248 9.09868652 78.63553251 9.09817438 70.7824707 9.10424805 C62.7242526 9.11028523 54.66620922 9.0979723 46.6080209 9.07667798 C39.64872391 9.05897469 32.68948209 9.05307425 25.73016346 9.05631572 C21.59161735 9.05811473 17.45319594 9.05563244 13.31467056 9.04160118 C9.4189421 9.028884 5.52348309 9.03109571 1.62775803 9.04401207 C0.21219027 9.04634747 -1.2033973 9.0437548 -2.61894226 9.03538895 C-28.68612937 8.89264542 -50.3785548 16.39596339 -69.03637695 34.79492188 Z " fill="#58D3EF" transform="translate(233.098876953125,38.580078125)"/>
<path d="M0 0 C1.51453352 0.01680629 3.0291163 0.02960794 4.54371643 0.03858948 C8.51196669 0.07279891 12.47720657 0.1610563 16.4442749 0.26092529 C20.49954504 0.35333775 24.5553064 0.39416994 28.61132812 0.43945312 C36.55606233 0.53570113 44.49835887 0.68910177 52.44140625 0.87890625 C51.49703737 2.30794092 50.55098961 3.73586621 49.60424805 5.16333008 C49.07760056 5.95862625 48.55095306 6.75392242 48.00834656 7.57331848 C45.89273147 10.68622345 43.60802638 13.63220284 41.25390625 16.56640625 C40.28512752 17.78773763 39.31637831 19.00909242 38.34765625 20.23046875 C37.86167969 20.84051758 37.37570312 21.45056641 36.875 22.07910156 C27.88877313 33.36085641 19.13251257 44.81183286 10.40625 56.29541016 C2.91027828 66.1515698 -4.62450377 75.97823805 -12.1796875 85.7890625 C-13.75671354 87.83738367 -15.33225234 89.8868508 -16.90625 91.9375 C-20.54915879 96.68216658 -24.19794597 101.42147381 -27.87890625 106.13671875 C-34.06887876 114.06678898 -40.20045444 122.03021135 -46.21240234 130.09619141 C-52.48677963 138.49368459 -59.00312463 146.69974455 -65.55859375 154.87890625 C-64.08318704 158.24039989 -62.1793956 160.57526177 -59.68359375 163.25390625 C-55.95975035 167.31736416 -52.32382514 171.43743394 -48.74609375 175.62890625 C-47.9873999 176.51606323 -47.9873999 176.51606323 -47.21337891 177.42114258 C-44.65190463 180.41894741 -42.0971606 183.42236147 -39.546875 186.4296875 C-34.11858584 192.81585792 -28.58617706 199.06283298 -22.85864258 205.18237305 C-18.88917569 209.45048321 -15.21880621 213.91896469 -11.5703125 218.46484375 C-9.31677337 221.16909071 -6.88826497 223.57784438 -4.359375 226.01953125 C-1.32663573 229.15094967 1.323756 232.59432224 4.0546875 235.98828125 C7.22336612 239.82596075 10.59307795 243.45835185 13.96484375 247.1171875 C16.4293263 249.86543539 18.75583308 252.68811493 21.06640625 255.56640625 C23.71890018 258.85642942 26.40888878 261.93628554 29.44140625 264.87890625 C33.30996952 268.63301499 36.62375242 272.71621396 39.98828125 276.921875 C43.17030563 280.75753178 46.54641322 284.39146621 49.98754883 287.99511719 C53.44140625 291.66719757 53.44140625 291.66719757 53.44140625 293.87890625 C44.3053258 294.0646167 35.16989902 294.20658646 26.03234005 294.29340363 C21.7888649 294.33508166 17.54668484 294.39156763 13.30395508 294.48242188 C9.20599803 294.56962246 5.10928292 294.61723591 1.01046944 294.63792419 C-0.54974351 294.65265805 -2.10989163 294.68143278 -3.66957283 294.7247467 C-15.89263239 295.05056054 -15.89263239 295.05056054 -20.03231812 292.13916016 C-21.80071351 290.13507964 -23.1822141 288.16291726 -24.55859375 285.87890625 C-26.05429602 284.20838163 -27.55363641 282.54109793 -29.05859375 280.87890625 C-33.95002374 275.45401494 -38.76038554 269.96464273 -43.53125 264.43359375 C-49.39813422 257.63742297 -55.31018552 250.90160563 -61.37109375 244.27734375 C-65.42882458 239.82833173 -69.3677839 235.28127155 -73.26953125 230.6953125 C-78.17209518 224.9391879 -83.09916675 219.2311729 -88.24609375 213.69140625 C-92.44566375 209.17039503 -96.3689263 204.47736421 -100.23828125 199.671875 C-103.67865678 195.53068223 -107.33716859 191.60366486 -110.99609375 187.65625 C-113.65601818 184.77331361 -116.24333966 181.83846792 -118.8125 178.875 C-120.89061396 176.49934847 -123.00478351 174.15808064 -125.12109375 171.81640625 C-125.87261719 170.97722656 -126.62414062 170.13804687 -127.3984375 169.2734375 C-128.74892144 167.77642728 -130.11394765 166.2922648 -131.5 164.828125 C-133.18359375 163.00390625 -133.18359375 163.00390625 -135.55859375 159.87890625 C-135.25619673 156.62975535 -133.85601829 154.65623691 -131.85546875 152.1484375 C-131.29375977 151.43647217 -130.73205078 150.72450684 -130.15332031 149.9909668 C-129.54456055 149.23211182 -128.93580078 148.47325684 -128.30859375 147.69140625 C-127.02666232 146.06954879 -125.74542855 144.44713969 -124.46484375 142.82421875 C-123.48644531 141.58913574 -123.48644531 141.58913574 -122.48828125 140.32910156 C-119.55534106 136.60503934 -116.6801865 132.83785096 -113.80859375 129.06640625 C-112.73061587 127.65353357 -111.65249395 126.24077078 -110.57421875 124.828125 C-110.06310547 124.1582959 -109.55199219 123.4884668 -109.02539062 122.79833984 C-106.87666435 119.98654125 -104.71793317 117.1825647 -102.55859375 114.37890625 C-98.71474774 109.38689845 -94.88415597 104.38493718 -91.05859375 99.37890625 C-84.7825949 91.16684078 -78.48254906 82.97361543 -72.17578125 74.78515625 C-65.83922359 66.55374373 -59.52615182 58.30455069 -53.21875 50.05078125 C-51.61394281 47.95131585 -50.00831459 45.85248161 -48.40234375 43.75390625 C-43.73891268 37.65941143 -39.07798035 31.56308545 -34.4296875 25.45703125 C-33.72432861 24.53051758 -33.01896973 23.60400391 -32.29223633 22.64941406 C-30.92835228 20.85743118 -29.5648803 19.06513457 -28.2019043 17.27246094 C-27.56937744 16.44133789 -26.93685059 15.61021484 -26.28515625 14.75390625 C-25.73424316 14.02945313 -25.18333008 13.305 -24.61572266 12.55859375 C-23.93687012 11.67429688 -23.25801758 10.79 -22.55859375 9.87890625 C-22.14812302 9.12758926 -21.73765228 8.37627228 -21.31474304 7.60218811 C-16.03853662 -1.00116823 -9.13853224 -0.29842551 0 0 Z " fill="#6D6EFA" transform="translate(620.55859375,168.12109375)"/>
<path d="M0 0 C1.51453352 0.01680629 3.0291163 0.02960794 4.54371643 0.03858948 C8.51196669 0.07279891 12.47720657 0.1610563 16.4442749 0.26092529 C20.49954504 0.35333775 24.5553064 0.39416994 28.61132812 0.43945312 C36.55606233 0.53570113 44.49835887 0.68910177 52.44140625 0.87890625 C51.49703737 2.30794092 50.55098961 3.73586621 49.60424805 5.16333008 C49.07760056 5.95862625 48.55095306 6.75392242 48.00834656 7.57331848 C45.89273147 10.68622345 43.60802638 13.63220284 41.25390625 16.56640625 C40.28512752 17.78773763 39.31637831 19.00909242 38.34765625 20.23046875 C37.86167969 20.84051758 37.37570312 21.45056641 36.875 22.07910156 C27.88877313 33.36085641 19.13251257 44.81183286 10.40625 56.29541016 C2.91027828 66.1515698 -4.62450377 75.97823805 -12.1796875 85.7890625 C-13.75671354 87.83738367 -15.33225234 89.8868508 -16.90625 91.9375 C-20.54915879 96.68216658 -24.19794597 101.42147381 -27.87890625 106.13671875 C-34.06887876 114.06678898 -40.20045444 122.03021135 -46.21240234 130.09619141 C-52.48677963 138.49368459 -59.00312463 146.69974455 -65.55859375 154.87890625 C-64.08318704 158.24039989 -62.1793956 160.57526177 -59.68359375 163.25390625 C-55.95975035 167.31736416 -52.32382514 171.43743394 -48.74609375 175.62890625 C-47.9873999 176.51606323 -47.9873999 176.51606323 -47.21337891 177.42114258 C-44.65190463 180.41894741 -42.0971606 183.42236147 -39.546875 186.4296875 C-34.11858584 192.81585792 -28.58617706 199.06283298 -22.85864258 205.18237305 C-18.88917569 209.45048321 -15.21880621 213.91896469 -11.5703125 218.46484375 C-9.31677337 221.16909071 -6.88826497 223.57784438 -4.359375 226.01953125 C-1.32663573 229.15094967 1.323756 232.59432224 4.0546875 235.98828125 C7.22336612 239.82596075 10.59307795 243.45835185 13.96484375 247.1171875 C16.4293263 249.86543539 18.75583308 252.68811493 21.06640625 255.56640625 C23.71890018 258.85642942 26.40888878 261.93628554 29.44140625 264.87890625 C33.30996952 268.63301499 36.62375242 272.71621396 39.98828125 276.921875 C43.17030563 280.75753178 46.54641322 284.39146621 49.98754883 287.99511719 C53.44140625 291.66719757 53.44140625 291.66719757 53.44140625 293.87890625 C44.3053258 294.0646167 35.16989902 294.20658646 26.03234005 294.29340363 C21.7888649 294.33508166 17.54668484 294.39156763 13.30395508 294.48242188 C9.20599803 294.56962246 5.10928292 294.61723591 1.01046944 294.63792419 C-0.54974351 294.65265805 -2.10989163 294.68143278 -3.66957283 294.7247467 C-15.89263239 295.05056054 -15.89263239 295.05056054 -20.03231812 292.13916016 C-21.80071351 290.13507964 -23.1822141 288.16291726 -24.55859375 285.87890625 C-26.05429602 284.20838163 -27.55363641 282.54109793 -29.05859375 280.87890625 C-33.95002374 275.45401494 -38.76038554 269.96464273 -43.53125 264.43359375 C-49.39813422 257.63742297 -55.31018552 250.90160563 -61.37109375 244.27734375 C-65.42882458 239.82833173 -69.3677839 235.28127155 -73.26953125 230.6953125 C-78.17209518 224.9391879 -83.09916675 219.2311729 -88.24609375 213.69140625 C-92.44566375 209.17039503 -96.3689263 204.47736421 -100.23828125 199.671875 C-103.67865678 195.53068223 -107.33716859 191.60366486 -110.99609375 187.65625 C-113.65601818 184.77331361 -116.24333966 181.83846792 -118.8125 178.875 C-120.89061396 176.49934847 -123.00478351 174.15808064 -125.12109375 171.81640625 C-125.87261719 170.97722656 -126.62414062 170.13804687 -127.3984375 169.2734375 C-128.74892144 167.77642728 -130.11394765 166.2922648 -131.5 164.828125 C-133.18359375 163.00390625 -133.18359375 163.00390625 -135.55859375 159.87890625 C-135.25619673 156.62975535 -133.85601829 154.65623691 -131.85546875 152.1484375 C-131.29375977 151.43647217 -130.73205078 150.72450684 -130.15332031 149.9909668 C-129.54456055 149.23211182 -128.93580078 148.47325684 -128.30859375 147.69140625 C-127.02666232 146.06954879 -125.74542855 144.44713969 -124.46484375 142.82421875 C-123.48644531 141.58913574 -123.48644531 141.58913574 -122.48828125 140.32910156 C-119.55534106 136.60503934 -116.6801865 132.83785096 -113.80859375 129.06640625 C-112.73061587 127.65353357 -111.65249395 126.24077078 -110.57421875 124.828125 C-110.06310547 124.1582959 -109.55199219 123.4884668 -109.02539062 122.79833984 C-106.87666435 119.98654125 -104.71793317 117.1825647 -102.55859375 114.37890625 C-98.71474774 109.38689845 -94.88415597 104.38493718 -91.05859375 99.37890625 C-84.7825949 91.16684078 -78.48254906 82.97361543 -72.17578125 74.78515625 C-65.83922359 66.55374373 -59.52615182 58.30455069 -53.21875 50.05078125 C-51.61394281 47.95131585 -50.00831459 45.85248161 -48.40234375 43.75390625 C-43.73891268 37.65941143 -39.07798035 31.56308545 -34.4296875 25.45703125 C-33.72432861 24.53051758 -33.01896973 23.60400391 -32.29223633 22.64941406 C-30.92835228 20.85743118 -29.5648803 19.06513457 -28.2019043 17.27246094 C-27.56937744 16.44133789 -26.93685059 15.61021484 -26.28515625 14.75390625 C-25.73424316 14.02945313 -25.18333008 13.305 -24.61572266 12.55859375 C-23.93687012 11.67429688 -23.25801758 10.79 -22.55859375 9.87890625 C-22.14812302 9.12758926 -21.73765228 8.37627228 -21.31474304 7.60218811 C-16.03853662 -1.00116823 -9.13853224 -0.29842551 0 0 Z M-19.86376953 16.74926758 C-20.42306152 17.78204834 -20.98235352 18.8148291 -21.55859375 19.87890625 C-22.86929247 21.70784116 -24.19937977 23.5232327 -25.55859375 25.31640625 C-26.20570313 26.22132813 -26.8528125 27.12625 -27.51953125 28.05859375 C-32.43335992 34.8551154 -37.6439247 41.43817795 -42.81640625 48.0390625 C-48.90777714 55.82204977 -54.91008666 63.65204024 -60.74609375 71.62890625 C-66.10081337 78.94694903 -71.59249276 86.12943307 -77.24072266 93.22265625 C-79.48103899 96.03820016 -81.70849571 98.86382752 -83.93359375 101.69140625 C-84.3817041 102.26084961 -84.82981445 102.83029297 -85.29150391 103.41699219 C-90.60420922 110.18613423 -95.81240757 117.0351456 -101.03027344 123.87744141 C-104.05584432 127.83968264 -107.09886751 131.78846239 -110.140625 135.73828125 C-111.84792697 137.9558431 -113.55377273 140.17446657 -115.2578125 142.39453125 C-115.70552002 142.97750977 -116.15322754 143.56048828 -116.61450195 144.16113281 C-117.85394569 145.7751854 -119.09300179 147.38953562 -120.33203125 149.00390625 C-122.55859375 151.87890625 -122.55859375 151.87890625 -124.91015625 154.50390625 C-126.75422645 156.67892975 -126.75422645 156.67892975 -126.55859375 158.9375 C-125.2583397 161.46182135 -123.64014563 163.00802039 -121.55859375 164.94140625 C-118.22092244 168.16362352 -115.19877745 171.43762005 -112.30859375 175.06640625 C-108.73821795 179.529376 -104.97523507 183.72350729 -101.05859375 187.87890625 C-96.43540046 192.78826876 -92.09256352 197.82371471 -87.875 203.08984375 C-84.19872878 207.51624788 -80.25433003 211.68691737 -76.33203125 215.89453125 C-72.03877576 220.50038851 -67.93529953 225.25990695 -63.85546875 230.0546875 C-58.02625687 236.89709681 -52.10326844 243.62008286 -46.00390625 250.22265625 C-42.78646877 253.71763626 -39.65715536 257.27855329 -36.55859375 260.87890625 C-36.1296582 261.37616211 -35.70072266 261.87341797 -35.25878906 262.38574219 C-33.753001 264.1321301 -32.24921706 265.88022437 -30.74609375 267.62890625 C-30.28468994 268.16499512 -29.82328613 268.70108398 -29.34790039 269.25341797 C-28.87473389 269.80529785 -28.40156738 270.35717773 -27.9140625 270.92578125 C-27.37813477 271.51391602 -26.84220703 272.10205078 -26.29003906 272.70800781 C-24.55859375 274.87890625 -24.55859375 274.87890625 -22.89746094 277.97949219 C-20.53305918 281.82917952 -18.5896681 284.71933151 -14.55859375 286.87890625 C-5.74759421 288.91560264 3.60772995 288.00218443 12.56640625 287.62890625 C15.07409136 287.56865962 17.58191509 287.51391619 20.08984375 287.46484375 C26.21007376 287.33314593 32.32509395 287.13286081 38.44140625 286.87890625 C36.30662103 283.59486393 34.24165811 280.44434353 31.5234375 277.6171875 C30.99621094 277.06160156 30.46898437 276.50601562 29.92578125 275.93359375 C29.3740625 275.35867188 28.82234375 274.78375 28.25390625 274.19140625 C24.32289076 270.03275958 20.51505287 265.85425221 16.94140625 261.37890625 C13.45578072 257.02187434 9.76348516 252.93767353 5.94140625 248.87890625 C1.33563179 243.98791181 -2.98473045 238.97123537 -7.18359375 233.72265625 C-10.02323925 230.3225544 -13.02248746 227.10305525 -16.05859375 223.87890625 C-20.68154333 218.96930327 -25.02460554 213.93412082 -29.2421875 208.66796875 C-32.91556695 204.24504644 -36.8562651 200.07754689 -40.77734375 195.875 C-43.51675546 192.93690769 -46.16724974 189.9305958 -48.79296875 186.890625 C-50.96769945 184.41277918 -53.20197777 181.9931175 -55.43359375 179.56640625 C-59.62590565 174.97847283 -63.58453509 170.24967417 -67.453125 165.38671875 C-69.56421632 162.75879406 -69.56421632 162.75879406 -72.3828125 160.30859375 C-74.55859375 157.87890625 -74.55859375 157.87890625 -74.6484375 155.9375 C-73.10717837 153.02623275 -71.17343447 150.50135232 -69.12109375 147.94140625 C-68.20423021 146.77489429 -67.28756905 145.60822325 -66.37109375 144.44140625 C-65.901875 143.8484375 -65.43265625 143.25546875 -64.94921875 142.64453125 C-62.81221568 139.93125769 -60.7189603 137.18496396 -58.62109375 134.44140625 C-55.25837175 130.06063049 -51.85669099 125.71259664 -48.43359375 121.37890625 C-41.67950464 112.81827823 -35.10320257 104.12197669 -28.50585938 95.44042969 C-20.58905473 85.026298 -12.62496645 74.65106828 -4.58203125 64.33398438 C-1.17919466 59.96815264 2.20353465 55.58806213 5.56640625 51.19140625 C9.08883716 46.59843261 12.68380618 42.0725365 16.31640625 37.56640625 C22.14493464 30.33112218 27.74214537 22.93212565 33.26220703 15.45947266 C34.24726893 14.1391226 35.26091755 12.84016263 36.28125 11.546875 C37.6317423 9.94388617 37.6317423 9.94388617 37.44140625 7.87890625 C30.64734325 7.57291842 23.85507168 7.36382251 17.05566406 7.21972656 C14.74672068 7.15962812 12.43822934 7.07791701 10.13085938 6.97363281 C-7.56659302 5.76936759 -7.56659302 5.76936759 -19.86376953 16.74926758 Z " fill="#B29BFA" transform="translate(620.55859375,168.12109375)"/>
<path d="M0 0 C17.82 0 35.64 0 54 0 C54.99 4.95 55.98 9.9 57 15 C61.18479682 26.39996375 67.09288093 33.4054641 78 39 C84.03405817 41.42606462 89.46977209 42.18372151 96 43 C96 60.16 96 77.32 96 95 C68.7854443 95 46.0381621 86.83288304 26.40625 67.4375 C8.92710401 48.90539341 0 25.35991763 0 0 Z " fill="#14D5F4" transform="translate(131,263)"/>
<path d="M0 0 C17.82 0 35.64 0 54 0 C54.99 4.95 55.98 9.9 57 15 C61.18479682 26.39996375 67.09288093 33.4054641 78 39 C84.03405817 41.42606462 89.46977209 42.18372151 96 43 C96 60.16 96 77.32 96 95 C68.7854443 95 46.0381621 86.83288304 26.40625 67.4375 C8.92710401 48.90539341 0 25.35991763 0 0 Z M8 7 C8.33 9.97 8.66 12.94 9 16 C9.103125 17.44375 9.20625 18.8875 9.3125 20.375 C11.49357702 38.97830401 24.45199514 56.94757748 38.22265625 68.80859375 C53.60255457 80.94378778 70.2321297 88 90 88 C90 75.13 90 62.26 90 49 C85.71 48.01 81.42 47.02 77 46 C73.4296875 44.5 73.4296875 44.5 70.875 43 C70.00617188 42.505 69.13734375 42.01 68.2421875 41.5 C66 40 66 40 64.3203125 38.3125 C63.07388066 36.76499819 63.07388066 36.76499819 61 37 C60.60941406 36.15115234 60.60941406 36.15115234 60.2109375 35.28515625 C58.89013884 32.79268137 57.32343792 30.6884865 55.625 28.4375 C50.90049152 21.78381722 48.59057296 14.95286481 47 7 C34.13 7 21.26 7 8 7 Z " fill="#44E7F7" transform="translate(131,263)"/>
<path d="M0 0 C1.49235792 -0.00243177 2.98471421 -0.00615482 4.47706604 -0.01106262 C8.50568693 -0.02041848 12.53406263 -0.01109335 16.56266427 0.00226951 C20.78617631 0.01363141 25.00967713 0.00947311 29.23320007 0.00752258 C36.31859317 0.00664159 43.40389022 0.01768329 50.48925781 0.03613281 C58.6799343 0.05733833 66.87047058 0.06080049 75.06116897 0.05457085 C82.95009671 0.04887823 90.83897511 0.05451903 98.72789574 0.0657444 C102.08227641 0.07038756 105.43662689 0.07126552 108.7910099 0.06915855 C112.73666955 0.06727598 116.68218628 0.07537705 120.62781334 0.09121895 C122.07582381 0.09546283 123.52384878 0.09631165 124.97186279 0.09352875 C126.94713487 0.09030816 128.92241526 0.10061148 130.8976593 0.11161804 C132.00318303 0.11367091 133.10870676 0.11572378 134.24773121 0.11783886 C137.05162977 0.36900075 138.70737079 0.92013887 141.08862305 2.37231445 C140.32570292 2.37047087 139.5627828 2.36862728 138.77674389 2.36672783 C120.17978713 2.32248411 101.58284094 2.28942647 82.9858427 2.26869011 C73.99233289 2.25839463 64.9988583 2.24436745 56.00537109 2.22143555 C48.16309373 2.20144864 40.32084189 2.18858547 32.47853976 2.18413746 C28.32934173 2.18153904 24.18021666 2.17546789 20.0310421 2.16085434 C16.11834249 2.14718651 12.20574528 2.14311023 8.29302406 2.14609909 C6.86407539 2.14555302 5.43512296 2.14163072 4.00619507 2.1339035 C-11.02105262 2.05668978 -22.70973833 2.95208364 -33.72387695 13.74731445 C-40.09292495 20.1253456 -43.03610718 26.47373846 -43.91137695 35.37231445 C-43.8581337 43.4001096 -43.8581337 43.4001096 -41.80200195 51.0715332 C-40.91137695 53.37231445 -40.91137695 53.37231445 -41.91137695 56.37231445 C-46.88167144 47.14176755 -47.55455815 37.13463707 -45.09887695 27.02856445 C-40.94423652 15.83411663 -32.83683442 7.48001537 -22.07623005 2.52773762 C-14.84458212 -0.24786294 -7.64701944 -0.04383944 0 0 Z " fill="#0E5D6D" transform="translate(232.911376953125,92.627685546875)"/>
<path d="M0 0 C0.33 0.66 0.66 1.32 1 2 C0.32609411 1.85844325 -0.34781178 1.7168865 -1.04213905 1.57104015 C-7.559601 0.28204768 -13.72343973 -0.28479079 -20.35693359 -0.24291992 C-21.32988876 -0.24481827 -22.30284393 -0.24671661 -23.30528259 -0.24867249 C-26.50308483 -0.25235501 -29.70065554 -0.24168481 -32.8984375 -0.23046875 C-35.17387872 -0.22927205 -37.44932044 -0.22882482 -39.72476196 -0.2290802 C-44.50762004 -0.22751792 -49.29040304 -0.21926752 -54.07324219 -0.20581055 C-60.05742341 -0.18914597 -66.041521 -0.18511331 -72.0257225 -0.18557549 C-85.90834481 -0.18546269 -99.79007472 -0.1322624 -113.67228699 -0.02532196 C-115.88017452 -0.00852122 -118.08807095 0.00715037 -120.29597473 0.02165985 C-126.54247179 0.06336719 -132.78806792 0.12589924 -139.03398514 0.22134972 C-140.91291256 0.24768598 -142.79193724 0.26797987 -144.67100143 0.28138161 C-155.44944527 0.36558085 -165.27025269 1.3265137 -175.69442749 4.1509552 C-179 5 -179 5 -182 5 C-171.68179978 -1.50607279 -161.55085687 -2.5994676 -149.56787109 -2.59350586 C-148.05523645 -2.60718481 -146.54261622 -2.62254333 -145.03001404 -2.63943481 C-140.95784293 -2.67980978 -136.88592338 -2.69580695 -132.81357908 -2.70629954 C-128.53275098 -2.72069885 -124.2520748 -2.75511522 -119.97134399 -2.78651428 C-112.78788513 -2.83605996 -105.60448507 -2.86974241 -98.42089844 -2.89379883 C-90.13636984 -2.92173121 -81.85228393 -2.97456758 -73.56797922 -3.04078192 C-65.56861581 -3.10416366 -57.56924224 -3.15014536 -49.56972122 -3.18820381 C-46.17837974 -3.20462118 -42.78715656 -3.22698899 -39.39588547 -3.25425529 C-35.39848456 -3.28558743 -31.40129827 -3.3015737 -27.40377998 -3.30609512 C-25.94374397 -3.31012791 -24.48371097 -3.31925552 -23.02374458 -3.33407402 C-7.26677361 -3.48705516 -7.26677361 -3.48705516 0 0 Z " fill="#2BEDF6" transform="translate(382,87)"/>
<path d="M0 0 C-24.50604772 11.35536644 -51.72923248 10.31707754 -78.18862987 10.00085878 C-81.85465165 9.95945393 -85.5207762 9.93084995 -89.18690491 9.90072632 C-96.08881396 9.8421525 -102.99056268 9.77253104 -109.89232308 9.69865549 C-117.76687368 9.61492661 -125.64152438 9.54394726 -133.51620662 9.47388959 C-149.67762042 9.32983051 -165.83884034 9.17024554 -182 9 C-182 8.67 -182 8.34 -182 8 C-170.89242091 7.8386305 -159.78474393 7.68541293 -148.67698669 7.53684235 C-145.9463942 7.50011961 -143.21581168 7.46271261 -140.48522949 7.42523193 C-121.44381841 7.16599451 -102.40662205 6.94617501 -83.36328125 7.0390625 C-81.92003907 7.04507373 -80.47679668 7.05103544 -79.03355408 7.0569458 C-72.39041798 7.08637768 -65.74801874 7.13582842 -59.10522461 7.21289062 C-40.99705321 7.36301959 -23.98841411 6.4424426 -6.96875 -0.109375 C-4.03015795 -0.99095262 -2.79659575 -1.12412182 0 0 Z " fill="#157CC4" transform="translate(438,489)"/>
<path d="M0 0 C0.99 0.495 0.99 0.495 2 1 C-12.94061692 14.0489109 -27.39299366 15.16006969 -46.28515625 15.09765625 C-47.95381121 15.09578821 -49.62246673 15.09436613 -51.29112244 15.09336853 C-55.65580799 15.08957374 -60.02045958 15.07976982 -64.38513184 15.06866455 C-68.84984885 15.05838469 -73.31457141 15.0538569 -77.77929688 15.04882812 C-86.51954673 15.03814447 -95.25976912 15.02110508 -104 15 C-104 14.34 -104 13.68 -104 13 C-103.12045654 13.00785522 -103.12045654 13.00785522 -102.22314453 13.01586914 C-93.48177807 13.08095566 -84.74131013 13.05217057 -76 13 C-74.55400421 12.99223541 -74.55400421 12.99223541 -73.07879639 12.98431396 C-66.5236546 12.9462739 -59.96937173 12.88133373 -53.41473389 12.79147339 C-51.19560929 12.76401868 -48.97639193 12.74319114 -46.75714111 12.72927856 C-32.31998665 12.63155989 -19.65500032 12.29683831 -6.8125 4.875 C-5.93207031 4.37742187 -5.05164063 3.87984375 -4.14453125 3.3671875 C-1.90223009 2.0463137 -1.90223009 2.0463137 0 0 Z " fill="#1D81CA" transform="translate(429,444)"/>
<path d="M0 0 C0.6625775 -0.00226556 1.32515499 -0.00453111 2.00781059 -0.00686532 C4.20851299 -0.01315105 6.40915295 -0.01237949 8.60986328 -0.0115509 C10.19557779 -0.0145457 11.78129157 -0.01794897 13.36700439 -0.02172852 C17.66031531 -0.03053796 21.95360627 -0.03290528 26.24692535 -0.0335443 C28.93136298 -0.0342563 31.61579556 -0.0363934 34.30023193 -0.03904152 C43.67102377 -0.04828333 53.04180141 -0.05237768 62.41259766 -0.05158997 C71.13938622 -0.0509888 79.86611304 -0.06155125 88.59288597 -0.07733363 C96.09456357 -0.09041572 103.59622101 -0.09577361 111.09790993 -0.09513456 C115.57438964 -0.09487986 120.0508144 -0.09771582 124.52728271 -0.10831261 C128.73637028 -0.11800537 132.94535045 -0.11806469 137.15444183 -0.11079597 C138.69633898 -0.10975175 140.23824286 -0.11210339 141.78012848 -0.11815643 C143.89032823 -0.12590218 146.00015945 -0.12121488 148.11035156 -0.11352539 C149.28945099 -0.11407016 150.46855042 -0.11461493 151.68338013 -0.1151762 C155.43668935 0.16187418 158.48214481 0.98632913 162.05517578 2.13371277 C159.05517578 4.13371277 159.05517578 4.13371277 156.4866991 3.89950752 C154.94783558 3.5893385 154.94783558 3.5893385 153.37788391 3.27290344 C145.52986324 1.92374525 137.82306849 1.86632338 129.8918457 1.90666199 C128.31359362 1.90722755 126.73534101 1.90690671 125.15708923 1.90577698 C120.91414544 1.90520813 116.67131701 1.9168858 112.4283998 1.93092489 C107.97882802 1.94351108 103.52925298 1.94460892 99.07966614 1.94697571 C90.67232321 1.95316746 82.2650329 1.96954677 73.85771304 1.98967469 C64.27839931 2.01210583 54.69908293 2.02304519 45.11974943 2.03306556 C25.43152895 2.05391528 5.7433557 2.08904598 -13.94482422 2.13371277 C-13.94482422 1.80371277 -13.94482422 1.47371277 -13.94482422 1.13371277 C-9.25126144 0.38107225 -4.75160429 0.00675342 0 0 Z " fill="#17EAF5" transform="translate(222.94482421875,46.86628723144531)"/>
<path d="M0 0 C1.27276236 3.81828709 0.46150899 5.28549103 -0.8125 9.0625 C-7.18011592 29.06871196 -6.55150972 49.51169298 2 69 C3.96575067 72.57009873 6.1531528 75.97760845 8.390625 79.3828125 C10 82 10 82 10 84 C9.34 84 8.68 84 8 84 C8 83.01 8 82.02 8 81 C7.01 80.67 6.02 80.34 5 80 C3.6954197 77.8415126 2.57795137 75.76770762 1.5 73.5 C1.03654175 72.54432129 1.03654175 72.54432129 0.5637207 71.56933594 C-5.30763728 59.24962065 -7.39321746 47.42957213 -7.375 33.8125 C-7.37411377 32.62446777 -7.37322754 31.43643555 -7.37231445 30.21240234 C-7.22503469 19.26286255 -6.04782615 9.392326 0 0 Z " fill="#2CF2F9" transform="translate(146,97)"/>
<path d="M0 0 C0.66 0.33 1.32 0.66 2 1 C0.56665422 2.62866544 -0.87182979 4.25280994 -2.3125 5.875 C-3.11300781 6.77992187 -3.91351563 7.68484375 -4.73828125 8.6171875 C-7 11 -7 11 -10 13 C-11.43037613 15.92239722 -11.43037613 15.92239722 -12.625 19.3125 C-13.05039063 20.44300781 -13.47578125 21.57351562 -13.9140625 22.73828125 C-15.44876017 27.34789476 -16.12605077 31.44531889 -16.09765625 36.30078125 C-16.09443359 37.27724609 -16.09121094 38.25371094 -16.08789062 39.25976562 C-16.07951172 40.26716797 -16.07113281 41.27457031 -16.0625 42.3125 C-16.05798828 43.33923828 -16.05347656 44.36597656 -16.04882812 45.42382812 C-16.03708184 47.94927882 -16.02065565 50.47460905 -16 53 C-20.79385949 45.80921077 -19.73515063 35.24722195 -18.57421875 26.9609375 C-15.87752361 15.47930297 -9.09277649 7.19587074 0 0 Z " fill="#39F4F9" transform="translate(198,93)"/>
<path d="M0 0 C-2.47015334 2.47015334 -3.71416403 2.40945414 -7.125 2.875 C-18.20631406 4.81782779 -24.79844594 10.50705256 -32 19 C-37.26627803 28.24838536 -37.68839056 37.61095164 -36 48 C-35.63390625 48.89074219 -35.2678125 49.78148437 -34.890625 50.69921875 C-34 53 -34 53 -35 56 C-39.97029449 46.7694531 -40.6431812 36.76232262 -38.1875 26.65625 C-34.38645207 16.41453751 -26.93836285 7.70161012 -17 3 C-11.18866071 0.48311714 -6.31427628 -0.34441507 0 0 Z " fill="#146F7D" transform="translate(226,93)"/>
<path d="M0 0 C-12.45300185 5.77034701 -24.45197145 8.00404528 -38 9.25 C-38.99169189 9.34240967 -39.98338379 9.43481934 -41.00512695 9.5300293 C-45.86271797 9.92880219 -50.20445109 10.13408251 -55 9 C-51.7936569 7.09252274 -49.69422587 6.85308894 -46 7.0625 C-32.56774245 7.25930963 -19.46781622 4.70221244 -6.96875 -0.109375 C-4.03015795 -0.99095262 -2.79659575 -1.12412182 0 0 Z " fill="#227DCC" transform="translate(438,489)"/>
<path d="M0 0 C0.59425781 0.20238281 1.18851563 0.40476563 1.80078125 0.61328125 C1.31754395 0.95649414 0.83430664 1.29970703 0.33642578 1.65332031 C-4.9670459 5.5124803 -9.69388997 9.72406509 -14.32421875 14.36328125 C-15.02417969 15.06195313 -15.72414062 15.760625 -16.4453125 16.48046875 C-21.30640357 21.44226039 -25.26669063 26.25947032 -28.19921875 32.61328125 C-29.1784065 29.53771167 -29.34911855 28.92735702 -27.88671875 25.86328125 C-27.32984375 25.12078125 -26.77296875 24.37828125 -26.19921875 23.61328125 C-25.53921875 23.61328125 -24.87921875 23.61328125 -24.19921875 23.61328125 C-24.13734375 23.05640625 -24.07546875 22.49953125 -24.01171875 21.92578125 C-23.10339002 19.34053793 -21.82818193 18.07361692 -19.84765625 16.23046875 C-17.70952247 14.13286831 -15.78928756 11.87344572 -13.82421875 9.61328125 C-4.48031585 -0.78783529 -4.48031585 -0.78783529 0 0 Z " fill="#15EDF9" transform="translate(178.19921875,60.38671875)"/>
<path d="M0 0 C1.14287476 0.00424484 2.28574951 0.00848969 3.46325684 0.01286316 C7.09033409 0.02956901 10.7168425 0.06720719 14.34375 0.10546875 C16.81249194 0.120526 19.28124264 0.13421258 21.75 0.14648438 C27.78144196 0.17944604 33.81255532 0.22956472 39.84375 0.29296875 C39.84375 0.62296875 39.84375 0.95296875 39.84375 1.29296875 C38.56959229 1.30231445 37.29543457 1.31166016 35.98266602 1.32128906 C31.17194983 1.36171645 26.36183844 1.42761026 21.55151367 1.50048828 C19.48518755 1.52839643 17.41876066 1.54975779 15.35229492 1.56396484 C3.49246491 1.65030187 -7.51077882 2.25349549 -18.97290039 5.44433594 C-22.15625 6.29296875 -22.15625 6.29296875 -25.15625 6.29296875 C-16.76989728 0.78942477 -9.81213815 -0.13860353 0 0 Z " fill="#5CFEFE" transform="translate(225.15625,85.70703125)"/>
<path d="M0 0 C4.29387259 1.4014723 8.56078174 2.80820032 12.75 4.5 C18.31700758 6.6385456 24.18339917 7.74978549 30 9 C30 9.33 30 9.66 30 10 C21.70362468 9.74354327 15.3810449 8.750047 8 5 C6.00736409 4.31163487 4.00958663 3.63718601 2 3 C1.34 2.67 0.68 2.34 0 2 C0 1.34 0 0.68 0 0 Z " fill="#27EEF8" transform="translate(182,203)"/>
<path d="M0 0 C4.35410978 -0.0583721 8.70811793 -0.09372173 13.0625 -0.125 C14.29162109 -0.14175781 15.52074219 -0.15851562 16.78710938 -0.17578125 C22.90556393 -0.20876483 28.24479433 -0.17209842 34 2 C30.32853982 4.44764012 29.62886307 4.01720789 25.4375 3.1875 C16.99560182 1.70730292 8.55205192 1.36473398 0 1 C0 0.67 0 0.34 0 0 Z " fill="#29EAF4" transform="translate(351,47)"/>
<path d="M0 0 C0.66 0 1.32 0 2 0 C2.67408308 1.26691507 3.33900497 2.53870749 4 3.8125 C4.556875 4.87404297 4.556875 4.87404297 5.125 5.95703125 C6 8 6 8 6 11 C6.99 11.33 7.98 11.66 9 12 C10.58965571 14.21701147 11.72327486 16.57862473 13 19 C11 19 11 19 9.4140625 17.53125 C0 6.84279476 0 6.84279476 0 0 Z " fill="#40F6FA" transform="translate(182,146)"/>
<path d="M0 0 C0.99 0.33 1.98 0.66 3 1 C-0.63 4.63 -4.26 8.26 -8 12 C-8.33 11.01 -8.66 10.02 -9 9 C-6.03 6.03 -3.06 3.06 0 0 Z " fill="#69F0F1" transform="translate(162,63)"/>
<path d="M0 0 C0.66 0 1.32 0 2 0 C0.49471893 4.04992289 -1.88730314 5.5253393 -5.5 7.75 C-6.4796875 8.36359375 -7.459375 8.9771875 -8.46875 9.609375 C-11 11 -11 11 -13 11 C-13 10.34 -13 9.68 -13 9 C-11.25588699 7.76337138 -9.45293515 6.60897865 -7.625 5.5 C-3.57056853 3.05783493 -3.57056853 3.05783493 0 0 Z " fill="#2B7FD2" transform="translate(457,474)"/>
<path d="M0 0 C0 3.90838866 -1.50567876 5.11594107 -4 8 C-3.34 8.33 -2.68 8.66 -2 9 C-2 9.66 -2 10.32 -2 11 C-4.91517292 9.92598892 -6.77810176 9.22189824 -9 7 C-6.03 4.69 -3.06 2.38 0 0 Z " fill="#1D3C71" transform="translate(459,322)"/>
<path d="M0 0 C-5.60236281 2.67149708 -10.93139507 4.67594074 -17 6 C-14.67566233 2.5134935 -13.47749494 2.13400623 -9.625 0.75 C-8.66851562 0.39421875 -7.71203125 0.0384375 -6.7265625 -0.328125 C-3.95935166 -1.0100165 -2.63263806 -0.9732027 0 0 Z " fill="#24F0F7" transform="translate(217,87)"/>
<path d="M0 0 C2.99220268 1.36370299 5.29026529 2.94908083 7.75 5.125 C8.67039063 5.93324219 8.67039063 5.93324219 9.609375 6.7578125 C10.06828125 7.16773438 10.5271875 7.57765625 11 8 C10.01 8.33 9.02 8.66 8 9 C5.95703125 7.63671875 5.95703125 7.63671875 3.8125 5.6875 C2.73935547 4.73423828 2.73935547 4.73423828 1.64453125 3.76171875 C0 2 0 2 0 0 Z " fill="#28F1F8" transform="translate(163,189)"/>
<path d="M0 0 C0.57492188 0.22042969 1.14984375 0.44085938 1.7421875 0.66796875 C-2.78273199 3.95075348 -7.2433046 7.1607148 -12.2578125 9.66796875 C-10.85089766 6.33923725 -9.25089669 4.53629503 -6.3828125 2.35546875 C-5.70476562 1.82308594 -5.02671875 1.29070313 -4.328125 0.7421875 C-2.2578125 -0.33203125 -2.2578125 -0.33203125 0 0 Z " fill="#32F3F9" transform="translate(178.2578125,60.33203125)"/>
<path d="M0 0 C1 3 1 3 -0.21484375 5.48046875 C-0.78332031 6.37378906 -1.35179687 7.26710938 -1.9375 8.1875 C-2.50339844 9.08855469 -3.06929687 9.98960938 -3.65234375 10.91796875 C-4.09707031 11.60503906 -4.54179687 12.29210937 -5 13 C-5.97918775 9.92443042 -6.1498998 9.31407577 -4.6875 6.25 C-4.130625 5.5075 -3.57375 4.765 -3 4 C-2.34 4 -1.68 4 -1 4 C-0.67 2.68 -0.34 1.36 0 0 Z " fill="#36F4F9" transform="translate(155,80)"/>
<path d="M0 0 C4.97306516 0.49730652 8.63799813 1.55302334 13 4 C10.44855176 4.93045933 9.25993522 5.08564091 6.640625 4.22265625 C5.85171875 3.83980469 5.0628125 3.45695313 4.25 3.0625 C3.45078125 2.68222656 2.6515625 2.30195313 1.828125 1.91015625 C1.22484375 1.60980469 0.6215625 1.30945313 0 1 C0 0.67 0 0.34 0 0 Z " fill="#2EF1F8" transform="translate(202,170)"/>
<path d="M0 0 C-3.27301919 2.96909598 -5.38065762 3.34354794 -9.75 3.1875 C-10.73484375 3.16042969 -11.7196875 3.13335937 -12.734375 3.10546875 C-13.48203125 3.07066406 -14.2296875 3.03585937 -15 3 C-15 2.67 -15 2.34 -15 2 C-13.43883181 1.66048381 -11.87598662 1.32867456 -10.3125 1 C-9.44238281 0.814375 -8.57226562 0.62875 -7.67578125 0.4375 C-5.06287036 0.01027953 -2.64186962 -0.07616201 0 0 Z " fill="#1E80CA" transform="translate(413,455)"/>
<path d="M0 0 C1.670625 0.061875 1.670625 0.061875 3.375 0.125 C3.375 0.455 3.375 0.785 3.375 1.125 C2.488125 1.3725 1.60125 1.62 0.6875 1.875 C-2.72927135 3.16434768 -4.9047748 4.72480129 -7.625 7.125 C-5.06433824 0.17463235 -5.06433824 0.17463235 0 0 Z " fill="#6F63F4" transform="translate(612.625,175.875)"/>
<path d="M0 0 C1 3 1 3 -0.25 6 C-1.69149811 8.47113961 -2.85630917 10.16255071 -5 12 C-4.42365861 7.24518354 -2.44931479 4.02951788 0 0 Z " fill="#2483CF" transform="translate(479,446)"/>
<path d="M0 0 C5.02470674 2.37277818 6.56030983 5.21097855 9 10 C7 10 7 10 5.2734375 8.3203125 C4.64695313 7.59585938 4.02046875 6.87140625 3.375 6.125 C2.74335938 5.40570313 2.11171875 4.68640625 1.4609375 3.9453125 C0 2 0 2 0 0 Z " fill="#31F2F8" transform="translate(186,155)"/>
<path d="M0 0 C1.485 0.99 1.485 0.99 3 2 C3 2.66 3 3.32 3 4 C4.32 4.66 5.64 5.32 7 6 C7 6.66 7 7.32 7 8 C3.64379729 6.61122646 1.92701272 5.08322035 0 2 C0 1.34 0 0.68 0 0 Z " fill="#2AF2F8" transform="translate(156,181)"/>
<path d="M0 0 C3.37503669 1.1858237 5.64722731 2.27573689 8 5 C4.62537285 4.45276317 2.91765 3.9451 0 2 C0 1.34 0 0.68 0 0 Z " fill="#32F2F9" transform="translate(174,198)"/>
</svg>
